<svg version="1.1" id="Layer_1" xmlns="http://www.w3.org/2000/svg" xmlns:xlink="http://www.w3.org/1999/xlink" x="0px" y="0px"
	 width="100%" viewBox="0 0 1357 1152" enable-background="new 0 0 1357 1152" xml:space="preserve">
<path fill="#FFFFFF" opacity="1.000000" stroke="none" 
	d="
M571.000000,1153.000000 
	C381.087158,1153.000000 191.174286,1153.000000 1.000000,1153.000000 
	C1.000000,1038.306641 1.000000,923.613037 1.466748,808.459717 
	C7.517570,808.333679 13.205685,808.102234 18.666170,809.107361 
	C34.853676,812.087036 48.259712,819.751648 54.832203,835.494385 
	C57.823765,842.659973 59.142471,850.788757 59.780907,858.598328 
	C60.435780,866.609131 59.475056,874.772644 58.959206,882.852539 
	C58.468052,890.545593 57.907745,898.252502 56.898151,905.889954 
	C55.126873,919.289551 52.437027,932.588196 51.156406,946.026733 
	C49.811043,960.144470 48.842957,974.401733 49.268188,988.551208 
	C49.592609,999.346252 51.276325,1010.375793 54.254547,1020.756226 
	C59.831509,1040.194336 71.148308,1055.796509 89.329903,1065.740479 
	C109.053764,1076.527954 129.747589,1083.081665 152.615005,1081.079956 
	C158.657211,1080.551025 164.785019,1081.000000 170.615753,1081.000000 
	C170.615753,1067.218628 170.615753,1054.153076 170.615753,1041.000000 
	C163.733856,1041.000000 157.223145,1041.250244 150.742111,1040.919434 
	C145.736649,1040.663940 140.430145,1040.570190 135.854462,1038.832520 
	C126.488159,1035.275635 117.262459,1031.226074 110.891769,1022.658020 
	C101.775787,1010.397888 99.498550,996.075073 99.253914,981.624939 
	C99.038002,968.871155 100.905701,956.072937 102.019371,943.308838 
	C102.887352,933.360596 103.996712,923.433289 105.023407,913.499207 
	C106.335968,900.799072 108.224693,888.128601 108.852310,875.395508 
	C109.547256,861.296448 108.176117,847.287476 104.069008,833.606506 
	C99.245804,817.540222 90.125237,804.945618 75.168068,797.120911 
	C69.620964,794.218933 63.525410,792.369080 57.700588,789.988892 
	C57.074326,789.732910 56.586430,789.138367 56.034355,788.700867 
	C56.622074,788.126892 57.119282,787.371704 57.819141,787.022278 
	C58.814648,786.525146 59.956123,786.316101 61.040237,786.001160 
	C71.140602,783.067383 80.494461,778.682617 88.149658,771.314270 
	C102.321274,757.673584 106.883392,739.982056 107.868828,721.286499 
	C108.964455,700.500427 107.100945,679.803955 104.097954,659.189209 
	C102.564308,648.661011 102.227089,637.963867 100.915901,627.396851 
	C98.885872,611.036804 98.317413,594.757874 102.015099,578.555664 
	C105.053383,565.242737 111.947495,554.765686 123.831718,547.502136 
	C134.254868,541.131592 145.849350,540.145691 157.466385,539.066345 
	C161.862366,538.657898 166.328079,539.000000 170.668198,539.000000 
	C170.668198,525.324097 170.668198,512.259766 170.668198,497.884277 
	C155.175003,499.281036 140.060532,500.144623 125.091278,502.112701 
	C103.743004,504.919403 85.161476,513.408447 70.452461,529.901794 
	C55.911396,546.206787 49.909714,565.729187 49.296150,586.699280 
	C48.816429,603.095032 50.748848,619.588867 52.081562,636.000732 
	C52.979698,647.060913 54.737770,658.049866 56.041878,669.078857 
	C57.404476,680.602539 59.211029,692.107666 59.832844,703.674133 
	C60.328014,712.884766 59.905113,722.239929 58.872017,731.416382 
	C57.080856,747.326416 47.796951,758.172485 33.655468,764.943665 
	C23.338194,769.883850 12.214195,770.428467 1.000000,770.000000 
	C1.000000,513.744507 1.000000,257.488983 1.000000,1.000000 
	C205.026794,1.000000 409.053680,1.000000 613.440308,1.344249 
	C612.378174,2.447029 610.819824,3.026732 609.555725,3.991864 
	C597.535583,13.169620 586.247986,23.049147 577.116211,35.298923 
	C553.893433,66.451027 547.959717,100.542450 558.947021,137.706696 
	C567.578735,166.903259 588.144043,187.595490 609.357483,207.629410 
	C626.139587,223.478378 643.472168,238.838989 655.742371,258.613800 
	C665.953491,275.070099 669.888672,293.284241 665.694275,312.478912 
	C661.576172,331.323975 652.547302,347.698730 639.621399,362.156219 
	C634.986389,367.340515 631.654846,373.859375 628.516602,380.161591 
	C625.792847,385.631409 629.234253,392.331207 634.517639,392.937347 
	C640.488586,393.622375 646.110046,392.570679 651.351379,389.214172 
	C663.860718,381.203339 674.690613,371.435913 684.457031,360.223572 
	C693.601440,349.725250 701.125305,338.346954 706.732056,325.667572 
	C716.697021,303.132568 719.599426,279.796722 715.058533,255.470169 
	C710.616882,231.675522 699.844360,211.142960 683.183655,193.883087 
	C672.282349,182.589706 660.142700,172.500778 649.032959,161.396881 
	C638.158630,150.528168 627.355347,139.501938 617.493408,127.730049 
	C606.714722,114.863777 600.431519,99.644867 601.150391,82.584282 
	C601.757507,68.175514 606.104065,54.642109 614.738098,42.805527 
	C618.092468,38.206951 621.787842,33.857845 625.167053,29.276451 
	C627.563110,26.027967 629.862305,22.681572 631.898193,19.199644 
	C635.583313,12.897334 632.967651,7.055071 624.000000,1.000000 
	C868.598450,1.000000 1113.196899,1.000000 1358.000000,1.000000 
	C1358.000000,257.693481 1358.000000,514.387024 1357.571411,771.539551 
	C1348.980957,770.664185 1340.668579,769.915588 1332.690552,767.865784 
	C1318.852539,764.310303 1306.665771,757.727234 1301.357178,743.429504 
	C1298.913818,736.848572 1297.355957,729.571899 1297.234375,722.578796 
	C1297.034424,711.079468 1298.142212,699.539124 1299.055054,688.044373 
	C1299.766479,679.087280 1300.870605,670.153137 1302.064697,661.244263 
	C1304.272949,644.769775 1307.692993,628.382202 1308.684570,611.843140 
	C1309.529053,597.759644 1308.860229,583.335999 1306.771851,569.375366 
	C1301.674683,535.301453 1277.949951,513.169556 1246.029663,505.153625 
	C1235.513306,502.512756 1224.584229,501.343292 1213.775146,500.095459 
	C1205.327637,499.120239 1196.774048,499.063690 1188.339844,498.602875 
	C1188.339844,512.694397 1188.339844,525.757996 1188.339844,538.133362 
	C1198.716919,539.114868 1208.772217,539.537476 1218.638306,541.131653 
	C1231.209229,543.163025 1241.373047,549.766785 1248.996338,560.045044 
	C1257.667480,571.736267 1259.546753,585.548157 1259.769531,599.372925 
	C1259.940186,609.959839 1258.170776,620.596558 1256.996582,631.181396 
	C1255.827271,641.722168 1254.343628,652.228333 1252.962891,662.745117 
	C1251.328125,675.196960 1248.836548,687.605225 1248.247192,700.104553 
	C1247.730591,711.057312 1248.771362,722.180176 1250.140503,733.100525 
	C1251.803589,746.364014 1256.919800,758.506531 1266.075073,768.456299 
	C1275.137207,778.304688 1286.211182,785.008850 1300.925903,787.556152 
	C1296.530029,789.759216 1293.387939,791.750549 1289.970947,792.974976 
	C1274.451660,798.536072 1263.222534,808.924255 1256.250122,823.611572 
	C1249.773071,837.255371 1247.959106,852.232117 1248.294434,866.986694 
	C1248.669067,883.467529 1251.232178,899.905640 1253.001831,916.345215 
	C1254.207764,927.549805 1255.456055,938.758972 1257.099243,949.905090 
	C1259.473267,966.007874 1261.243286,982.087891 1257.972656,998.255981 
	C1255.976807,1008.121948 1251.957764,1017.026550 1245.012085,1024.504272 
	C1234.197632,1036.147095 1220.248779,1040.158447 1205.031860,1040.953247 
	C1199.449829,1041.244751 1193.839844,1041.000000 1188.331665,1041.000000 
	C1188.331665,1054.677734 1188.331665,1067.740967 1188.331665,1081.103271 
	C1206.533813,1080.305908 1224.578979,1083.014160 1242.131104,1077.062500 
	C1255.531128,1072.518921 1268.864990,1067.875000 1279.834595,1058.598999 
	C1299.866943,1041.659424 1307.968872,1019.138916 1308.932861,993.666443 
	C1309.575928,976.667358 1308.802246,959.711243 1306.072510,942.848206 
	C1304.040527,930.295471 1302.492065,917.658203 1300.994141,905.027100 
	C1299.491211,892.353333 1298.081177,879.658508 1297.117188,866.935974 
	C1296.735718,861.899658 1297.803345,856.768494 1297.975586,851.672546 
	C1298.613770,832.781494 1310.738892,818.004089 1327.797363,812.195801 
	C1336.601807,809.197998 1346.147827,808.378235 1356.077759,806.433533 
	C1356.344849,801.232910 1356.624878,794.850281 1357.035034,788.476074 
	C1357.131958,786.969604 1357.666626,785.491272 1358.000000,784.000000 
	C1358.000000,906.954346 1358.000000,1029.908691 1358.000000,1153.000000 
	C1104.306519,1153.000000 850.612976,1153.000000 596.636108,1152.596802 
	C613.775391,1151.129395 631.269287,1150.715088 648.599792,1148.812012 
	C664.859192,1147.026611 681.067749,1144.244751 697.079285,1140.862549 
	C720.463135,1135.923340 742.102539,1126.460205 762.183594,1113.407715 
	C780.903748,1101.239990 798.451782,1087.683960 812.882812,1070.529541 
	C822.213318,1059.438354 831.402527,1048.187622 839.975037,1036.509399 
	C851.482056,1020.833862 860.498657,1003.672607 868.142029,985.784424 
	C868.671387,984.545593 870.466370,983.479797 871.889282,983.049377 
	C882.204407,979.929993 892.490234,976.649597 902.945984,974.071777 
	C926.012634,968.385010 947.682068,959.374512 967.666687,946.659729 
	C981.314453,937.976624 994.664795,928.736267 1007.513000,918.914246 
	C1018.047668,910.860901 1028.022461,901.969910 1037.538330,892.722412 
	C1045.047119,885.425354 1051.540039,877.072693 1058.377563,869.097412 
	C1071.614624,853.657349 1082.419800,836.573853 1092.020630,818.705566 
	C1100.900635,802.178894 1107.712280,784.780762 1112.602417,766.705566 
	C1117.633911,748.108459 1121.159180,729.175598 1120.905884,709.817505 
	C1120.757446,698.471130 1119.884399,687.119263 1118.951782,675.801697 
	C1117.571655,659.055908 1112.602295,643.132996 1105.862671,627.913269 
	C1095.958862,605.548035 1081.958618,586.135376 1061.978760,571.437866 
	C1043.399170,557.770386 1022.626282,549.565125 999.702820,548.245789 
	C987.280518,547.530945 974.582581,548.439209 962.246948,550.243042 
	C948.907898,552.193542 935.559082,555.158264 923.972046,562.952454 
	C922.374268,564.027222 920.359985,564.482849 918.189148,565.367493 
	C918.531738,562.859253 918.965820,561.144165 918.969910,559.428101 
	C919.017578,539.429749 919.080017,519.430664 918.952820,499.432983 
	C918.913757,493.294617 916.363098,488.055328 911.523438,484.181641 
	C900.439148,475.309845 887.228821,470.711487 873.866211,467.187317 
	C846.674683,460.015961 818.788269,456.379425 790.905823,453.090210 
	C775.444153,451.266235 759.889832,450.155640 744.353821,449.054901 
	C731.194824,448.122498 718.008179,447.479523 704.822632,447.047241 
	C688.574280,446.514587 672.313965,446.042847 656.059692,446.071777 
	C634.971313,446.109283 613.883240,446.630096 592.796326,447.011719 
	C577.873535,447.281799 562.952148,447.640350 548.031311,448.007324 
	C536.108459,448.300537 524.187134,448.657043 512.265564,449.002136 
	C501.176636,449.323059 490.087372,449.638550 478.999878,450.005188 
	C459.488464,450.650330 439.974152,451.233337 420.469147,452.038513 
	C409.616089,452.486511 398.763855,453.143616 387.939270,454.043396 
	C374.241577,455.181976 360.525360,456.305420 346.903687,458.094452 
	C332.430023,459.995331 317.962097,462.201263 303.667297,465.131165 
	C288.705933,468.197662 273.717834,471.477203 260.445068,479.842407 
	C253.716904,484.082794 247.325806,488.841339 247.139526,497.280579 
	C246.453537,528.359924 246.247177,559.451111 246.028793,590.539001 
	C245.876602,612.203003 245.870056,633.869873 246.037430,655.533630 
	C246.191360,675.456299 246.433746,695.383667 247.056793,715.295898 
	C247.805923,739.236450 248.918579,763.166931 250.041199,787.093933 
	C250.456650,795.948853 251.039841,804.818115 252.090286,813.615906 
	C253.827194,828.163330 255.713394,842.705750 258.075684,857.162231 
	C260.659729,872.975403 263.628754,888.734985 266.839264,904.434265 
	C271.397339,926.722778 278.031372,948.433716 286.012299,969.733398 
	C293.842499,990.630798 303.308594,1010.753113 315.208282,1029.644775 
	C328.692719,1051.052368 344.368896,1070.604980 363.613220,1087.281982 
	C376.816010,1098.723389 390.970886,1108.625488 406.230530,1117.008789 
	C422.532776,1125.964844 439.604004,1133.248535 457.602386,1137.864258 
	C471.983826,1141.552490 486.615387,1144.400146 501.261536,1146.878784 
	C512.835449,1148.837646 524.573853,1150.020020 536.287903,1150.897705 
	C547.173645,1151.713257 558.124329,1151.653442 569.044067,1152.044434 
	C569.706543,1152.067993 570.348450,1152.668213 571.000000,1153.000000 
M475.572510,84.898582 
	C474.533783,85.286392 473.353485,85.473694 472.477661,86.092186 
	C459.877991,94.989555 450.006683,106.274384 441.808319,119.375153 
	C426.060608,144.539673 422.036743,171.781647 428.308472,200.147385 
	C433.981720,225.806320 449.513580,246.042618 468.868591,263.279175 
	C485.287201,277.900757 503.139923,290.989014 517.318726,307.980682 
	C521.841553,313.400787 526.004822,319.379486 529.065369,325.714752 
	C540.043335,348.439026 535.998352,370.170227 523.477173,391.019592 
	C519.327637,397.929199 514.639709,404.550537 510.953400,411.693542 
	C507.113464,419.134247 510.417725,426.376251 517.178345,427.000244 
	C522.739624,427.513580 527.832336,426.275085 532.434265,423.049774 
	C548.577515,411.735596 560.691406,396.649811 569.518555,379.457672 
	C578.611572,361.747528 583.294373,342.709930 581.225037,322.204742 
	C579.949890,309.569611 576.724915,297.714722 571.634583,286.342773 
	C562.384338,265.677521 547.117798,249.653961 529.889832,235.582047 
	C515.753662,224.035538 500.843170,213.451523 488.399567,199.932358 
	C476.950012,187.493118 470.893463,172.772842 470.087128,156.027039 
	C469.587036,145.641495 472.485016,135.810318 477.137329,126.556976 
	C481.055206,118.764465 485.341339,111.154228 489.153931,103.312347 
	C494.967407,91.354881 487.817566,82.821404 475.572510,84.898582 
z"/>
<path fill="#0C2340" opacity="1.000000" stroke="none" 
	d="
M571.468628,1153.000000 
	C570.348450,1152.668213 569.706543,1152.067993 569.044067,1152.044434 
	C558.124329,1151.653442 547.173645,1151.713257 536.287903,1150.897705 
	C524.573853,1150.020020 512.835449,1148.837646 501.261536,1146.878784 
	C486.615387,1144.400146 471.983826,1141.552490 457.602386,1137.864258 
	C439.604004,1133.248535 422.532776,1125.964844 406.230530,1117.008789 
	C390.970886,1108.625488 376.816010,1098.723389 363.613220,1087.281982 
	C344.368896,1070.604980 328.692719,1051.052368 315.208282,1029.644775 
	C303.308594,1010.753113 293.842499,990.630798 286.012299,969.733398 
	C278.031372,948.433716 271.397339,926.722778 266.839264,904.434265 
	C263.628754,888.734985 260.659729,872.975403 258.075684,857.162231 
	C255.713394,842.705750 253.827194,828.163330 252.090286,813.615906 
	C251.039841,804.818115 250.456650,795.948853 250.041199,787.093933 
	C248.918579,763.166931 247.805923,739.236450 247.056793,715.295898 
	C246.433746,695.383667 246.191360,675.456299 246.037430,655.533630 
	C245.870056,633.869873 245.876602,612.203003 246.028793,590.539001 
	C246.247177,559.451111 246.453537,528.359924 247.139526,497.280579 
	C247.325806,488.841339 253.716904,484.082794 260.445068,479.842407 
	C273.717834,471.477203 288.705933,468.197662 303.667297,465.131165 
	C317.962097,462.201263 332.430023,459.995331 346.903687,458.094452 
	C360.525360,456.305420 374.241577,455.181976 387.939270,454.043396 
	C398.763855,453.143616 409.616089,452.486511 420.469147,452.038513 
	C439.974152,451.233337 459.488464,450.650330 478.999878,450.005188 
	C490.087372,449.638550 501.176636,449.323059 512.265564,449.002136 
	C524.187134,448.657043 536.108459,448.300537 548.031311,448.007324 
	C562.952148,447.640350 577.873535,447.281799 592.796326,447.011719 
	C613.883240,446.630096 634.971313,446.109283 656.059692,446.071777 
	C672.313965,446.042847 688.574280,446.514587 704.822632,447.047241 
	C718.008179,447.479523 731.194824,448.122498 744.353821,449.054901 
	C759.889832,450.155640 775.444153,451.266235 790.905823,453.090210 
	C818.788269,456.379425 846.674683,460.015961 873.866211,467.187317 
	C887.228821,470.711487 900.439148,475.309845 911.523438,484.181641 
	C916.363098,488.055328 918.913757,493.294617 918.952820,499.432983 
	C919.080017,519.430664 919.017578,539.429749 918.969910,559.428101 
	C918.965820,561.144165 918.531738,562.859253 918.189148,565.367493 
	C920.359985,564.482849 922.374268,564.027222 923.972046,562.952454 
	C935.559082,555.158264 948.907898,552.193542 962.246948,550.243042 
	C974.582581,548.439209 987.280518,547.530945 999.702820,548.245789 
	C1022.626282,549.565125 1043.399170,557.770386 1061.978760,571.437866 
	C1081.958618,586.135376 1095.958862,605.548035 1105.862671,627.913269 
	C1112.602295,643.132996 1117.571655,659.055908 1118.951782,675.801697 
	C1119.884399,687.119263 1120.757446,698.471130 1120.905884,709.817505 
	C1121.159180,729.175598 1117.633911,748.108459 1112.602417,766.705566 
	C1107.712280,784.780762 1100.900635,802.178894 1092.020630,818.705566 
	C1082.419800,836.573853 1071.614624,853.657349 1058.377563,869.097412 
	C1051.540039,877.072693 1045.047119,885.425354 1037.538330,892.722412 
	C1028.022461,901.969910 1018.047668,910.860901 1007.513000,918.914246 
	C994.664795,928.736267 981.314453,937.976624 967.666687,946.659729 
	C947.682068,959.374512 926.012634,968.385010 902.945984,974.071777 
	C892.490234,976.649597 882.204407,979.929993 871.889282,983.049377 
	C870.466370,983.479797 868.671387,984.545593 868.142029,985.784424 
	C860.498657,1003.672607 851.482056,1020.833862 839.975037,1036.509399 
	C831.402527,1048.187622 822.213318,1059.438354 812.882812,1070.529541 
	C798.451782,1087.683960 780.903748,1101.239990 762.183594,1113.407715 
	C742.102539,1126.460205 720.463135,1135.923340 697.079285,1140.862549 
	C681.067749,1144.244751 664.859192,1147.026611 648.599792,1148.812012 
	C631.269287,1150.715088 613.775391,1151.129395 596.176392,1152.596802 
	C587.979065,1153.000000 579.958191,1153.000000 571.468628,1153.000000 
M676.015259,959.365356 
	C689.974121,960.962891 703.932983,962.560425 718.295532,964.204163 
	C718.295532,993.724121 718.295532,1022.761841 718.295532,1053.581299 
	C726.803345,1049.646606 734.440979,1046.529907 741.594910,1042.544922 
	C743.656860,1041.396240 745.334656,1037.796753 745.458374,1035.237305 
	C745.972473,1024.599243 745.898193,1013.929382 745.909851,1003.271057 
	C746.012512,909.610229 746.083435,815.949341 746.188354,722.288513 
	C746.191528,719.469238 746.314270,716.632874 746.639465,713.834534 
	C747.399170,707.298401 745.003723,702.350403 739.228027,699.309509 
	C731.159485,695.061462 723.152832,690.615295 714.790161,687.020447 
	C679.458313,671.832214 644.087524,656.727295 608.558716,642.007812 
	C591.753662,635.045532 574.648132,628.768311 557.467834,622.786560 
	C554.115295,621.619324 549.401794,622.311768 545.973999,623.733154 
	C518.131165,635.278748 490.594727,647.571045 462.670349,658.910339 
	C432.708801,671.076965 402.477661,682.543884 373.946838,697.973938 
	C368.321014,701.016541 365.920898,704.550232 365.929840,711.218079 
	C366.062592,810.379456 366.173737,909.542969 365.492920,1008.700500 
	C365.409668,1020.823975 369.621155,1028.587769 378.670074,1035.021729 
	C381.649261,1037.140015 384.652802,1039.233521 387.745789,1041.178345 
	C389.213501,1042.101318 390.917542,1042.648438 393.313354,1043.724854 
	C393.313354,1017.279053 393.313354,991.730347 393.313354,966.189209 
	C412.136780,964.090881 430.408356,962.054077 449.139954,959.965942 
	C449.139954,994.171753 449.139954,1027.938232 449.139954,1061.948242 
	C457.743286,1062.685913 465.949860,1063.389526 474.624329,1064.133301 
	C474.624329,1027.766602 474.624329,991.996216 474.624329,955.728271 
	C496.824280,952.958008 518.667786,950.232239 540.940857,947.452881 
	C540.940857,987.919495 540.940857,1027.871216 540.940857,1068.303955 
	C549.205688,1068.893066 557.136658,1069.569336 565.081604,1069.963379 
	C567.784241,1070.097412 569.233887,1068.666138 568.385254,1065.616211 
	C568.038330,1064.369507 568.177551,1062.974243 568.177246,1061.646484 
	C568.168396,1025.313965 568.170166,988.981506 568.170166,952.649048 
	C568.170166,951.082520 568.170166,949.516052 568.170166,947.459717 
	C590.852905,950.296631 612.704834,953.029663 634.869690,955.801819 
	C634.869690,992.843933 634.869690,1029.275391 634.869690,1066.165771 
	C644.121765,1064.731201 652.917480,1063.367310 662.189941,1061.929565 
	C662.189941,1027.158813 662.189941,992.613220 662.189941,957.938904 
	C666.855225,958.389404 670.990051,958.788757 676.015259,959.365356 
M1003.614746,619.806274 
	C998.399536,618.864441 993.216248,617.382324 987.963745,617.072510 
	C962.845947,615.590881 941.108948,624.602722 921.481567,639.480408 
	C919.943909,640.645996 918.939514,643.277222 918.757019,645.322693 
	C918.255554,650.945923 918.309143,656.619568 918.168640,662.273926 
	C917.482117,689.894470 916.813049,717.515381 916.120361,745.135742 
	C915.359741,775.469360 910.681396,805.321594 905.577759,835.166321 
	C902.724976,851.848572 901.071411,868.747864 899.247070,885.589294 
	C898.283264,894.486572 903.065979,898.578247 911.681030,896.364807 
	C917.257324,894.932068 922.872742,893.113464 927.991455,890.521362 
	C977.621948,865.388916 1013.610352,826.975037 1036.903076,776.726135 
	C1052.151978,743.829956 1058.404541,709.439819 1049.913086,673.504578 
	C1043.904297,648.075928 1030.411255,628.602600 1003.614746,619.806274 
M314.390228,526.109314 
	C305.678894,523.764282 296.967560,521.419250 288.914154,519.251282 
	C288.914154,524.163452 289.241302,528.946045 288.835602,533.665588 
	C288.262115,540.336670 291.232880,544.781921 297.100250,546.902100 
	C306.417267,550.268677 315.792084,553.754395 325.428986,555.907349 
	C363.560089,564.426331 402.444519,566.554993 441.313843,567.650452 
	C470.072723,568.460938 498.896240,568.079346 527.661438,567.229858 
	C552.579529,566.494019 577.555786,565.277832 602.327271,562.611084 
	C637.154846,558.861755 671.819641,553.595276 706.540894,548.880615 
	C708.163147,548.660339 709.657104,547.494934 711.210754,546.769714 
	C698.792969,546.304688 686.869995,547.495667 674.945496,547.510254 
	C620.834473,547.576477 566.721252,547.532104 512.612305,547.093506 
	C471.012085,546.756409 429.474091,544.408020 388.236542,538.872986 
	C363.767242,535.588562 339.531311,530.565735 314.390228,526.109314 
z"/>
<path fill="#C81919" opacity="1.000000" stroke="none" 
	d="
M1.000000,770.468628 
	C12.214195,770.428467 23.338194,769.883850 33.655468,764.943665 
	C47.796951,758.172485 57.080856,747.326416 58.872017,731.416382 
	C59.905113,722.239929 60.328014,712.884766 59.832844,703.674133 
	C59.211029,692.107666 57.404476,680.602539 56.041878,669.078857 
	C54.737770,658.049866 52.979698,647.060913 52.081562,636.000732 
	C50.748848,619.588867 48.816429,603.095032 49.296150,586.699280 
	C49.909714,565.729187 55.911396,546.206787 70.452461,529.901794 
	C85.161476,513.408447 103.743004,504.919403 125.091278,502.112701 
	C140.060532,500.144623 155.175003,499.281036 170.668198,497.884277 
	C170.668198,512.259766 170.668198,525.324097 170.668198,539.000000 
	C166.328079,539.000000 161.862366,538.657898 157.466385,539.066345 
	C145.849350,540.145691 134.254868,541.131592 123.831718,547.502136 
	C111.947495,554.765686 105.053383,565.242737 102.015099,578.555664 
	C98.317413,594.757874 98.885872,611.036804 100.915901,627.396851 
	C102.227089,637.963867 102.564308,648.661011 104.097954,659.189209 
	C107.100945,679.803955 108.964455,700.500427 107.868828,721.286499 
	C106.883392,739.982056 102.321274,757.673584 88.149658,771.314270 
	C80.494461,778.682617 71.140602,783.067383 61.040237,786.001160 
	C59.956123,786.316101 58.814648,786.525146 57.819141,787.022278 
	C57.119282,787.371704 56.622074,788.126892 56.034355,788.700867 
	C56.586430,789.138367 57.074326,789.732910 57.700588,789.988892 
	C63.525410,792.369080 69.620964,794.218933 75.168068,797.120911 
	C90.125237,804.945618 99.245804,817.540222 104.069008,833.606506 
	C108.176117,847.287476 109.547256,861.296448 108.852310,875.395508 
	C108.224693,888.128601 106.335968,900.799072 105.023407,913.499207 
	C103.996712,923.433289 102.887352,933.360596 102.019371,943.308838 
	C100.905701,956.072937 99.038002,968.871155 99.253914,981.624939 
	C99.498550,996.075073 101.775787,1010.397888 110.891769,1022.658020 
	C117.262459,1031.226074 126.488159,1035.275635 135.854462,1038.832520 
	C140.430145,1040.570190 145.736649,1040.663940 150.742111,1040.919434 
	C157.223145,1041.250244 163.733856,1041.000000 170.615753,1041.000000 
	C170.615753,1054.153076 170.615753,1067.218628 170.615753,1081.000000 
	C164.785019,1081.000000 158.657211,1080.551025 152.615005,1081.079956 
	C129.747589,1083.081665 109.053764,1076.527954 89.329903,1065.740479 
	C71.148308,1055.796509 59.831509,1040.194336 54.254547,1020.756226 
	C51.276325,1010.375793 49.592609,999.346252 49.268188,988.551208 
	C48.842957,974.401733 49.811043,960.144470 51.156406,946.026733 
	C52.437027,932.588196 55.126873,919.289551 56.898151,905.889954 
	C57.907745,898.252502 58.468052,890.545593 58.959206,882.852539 
	C59.475056,874.772644 60.435780,866.609131 59.780907,858.598328 
	C59.142471,850.788757 57.823765,842.659973 54.832203,835.494385 
	C48.259712,819.751648 34.853676,812.087036 18.666170,809.107361 
	C13.205685,808.102234 7.517570,808.333679 1.466748,808.000000 
	C1.000000,795.645752 1.000000,783.291565 1.000000,770.468628 
z"/>
<path fill="#C81919" opacity="1.000000" stroke="none" 
	d="
M1358.000000,783.539368 
	C1357.666626,785.491272 1357.131958,786.969604 1357.035034,788.476074 
	C1356.624878,794.850281 1356.344849,801.232910 1356.077759,806.433533 
	C1346.147827,808.378235 1336.601807,809.197998 1327.797363,812.195801 
	C1310.738892,818.004089 1298.613770,832.781494 1297.975586,851.672546 
	C1297.803345,856.768494 1296.735718,861.899658 1297.117188,866.935974 
	C1298.081177,879.658508 1299.491211,892.353333 1300.994141,905.027100 
	C1302.492065,917.658203 1304.040527,930.295471 1306.072510,942.848206 
	C1308.802246,959.711243 1309.575928,976.667358 1308.932861,993.666443 
	C1307.968872,1019.138916 1299.866943,1041.659424 1279.834595,1058.598999 
	C1268.864990,1067.875000 1255.531128,1072.518921 1242.131104,1077.062500 
	C1224.578979,1083.014160 1206.533813,1080.305908 1188.331665,1081.103271 
	C1188.331665,1067.740967 1188.331665,1054.677734 1188.331665,1041.000000 
	C1193.839844,1041.000000 1199.449829,1041.244751 1205.031860,1040.953247 
	C1220.248779,1040.158447 1234.197632,1036.147095 1245.012085,1024.504272 
	C1251.957764,1017.026550 1255.976807,1008.121948 1257.972656,998.255981 
	C1261.243286,982.087891 1259.473267,966.007874 1257.099243,949.905090 
	C1255.456055,938.758972 1254.207764,927.549805 1253.001831,916.345215 
	C1251.232178,899.905640 1248.669067,883.467529 1248.294434,866.986694 
	C1247.959106,852.232117 1249.773071,837.255371 1256.250122,823.611572 
	C1263.222534,808.924255 1274.451660,798.536072 1289.970947,792.974976 
	C1293.387939,791.750549 1296.530029,789.759216 1300.925903,787.556152 
	C1286.211182,785.008850 1275.137207,778.304688 1266.075073,768.456299 
	C1256.919800,758.506531 1251.803589,746.364014 1250.140503,733.100525 
	C1248.771362,722.180176 1247.730591,711.057312 1248.247192,700.104553 
	C1248.836548,687.605225 1251.328125,675.196960 1252.962891,662.745117 
	C1254.343628,652.228333 1255.827271,641.722168 1256.996582,631.181396 
	C1258.170776,620.596558 1259.940186,609.959839 1259.769531,599.372925 
	C1259.546753,585.548157 1257.667480,571.736267 1248.996338,560.045044 
	C1241.373047,549.766785 1231.209229,543.163025 1218.638306,541.131653 
	C1208.772217,539.537476 1198.716919,539.114868 1188.339844,538.133362 
	C1188.339844,525.757996 1188.339844,512.694397 1188.339844,498.602875 
	C1196.774048,499.063690 1205.327637,499.120239 1213.775146,500.095459 
	C1224.584229,501.343292 1235.513306,502.512756 1246.029663,505.153625 
	C1277.949951,513.169556 1301.674683,535.301453 1306.771851,569.375366 
	C1308.860229,583.335999 1309.529053,597.759644 1308.684570,611.843140 
	C1307.692993,628.382202 1304.272949,644.769775 1302.064697,661.244263 
	C1300.870605,670.153137 1299.766479,679.087280 1299.055054,688.044373 
	C1298.142212,699.539124 1297.034424,711.079468 1297.234375,722.578796 
	C1297.355957,729.571899 1298.913818,736.848572 1301.357178,743.429504 
	C1306.665771,757.727234 1318.852539,764.310303 1332.690552,767.865784 
	C1340.668579,769.915588 1348.980957,770.664185 1357.571411,771.999268 
	C1358.000000,775.692932 1358.000000,779.385803 1358.000000,783.539368 
z"/>
<path fill="#0C2340" opacity="1.000000" stroke="none" 
	d="
M623.545898,1.000000 
	C632.967651,7.055071 635.583313,12.897334 631.898193,19.199644 
	C629.862305,22.681572 627.563110,26.027967 625.167053,29.276451 
	C621.787842,33.857845 618.092468,38.206951 614.738098,42.805527 
	C606.104065,54.642109 601.757507,68.175514 601.150391,82.584282 
	C600.431519,99.644867 606.714722,114.863777 617.493408,127.730049 
	C627.355347,139.501938 638.158630,150.528168 649.032959,161.396881 
	C660.142700,172.500778 672.282349,182.589706 683.183655,193.883087 
	C699.844360,211.142960 710.616882,231.675522 715.058533,255.470169 
	C719.599426,279.796722 716.697021,303.132568 706.732056,325.667572 
	C701.125305,338.346954 693.601440,349.725250 684.457031,360.223572 
	C674.690613,371.435913 663.860718,381.203339 651.351379,389.214172 
	C646.110046,392.570679 640.488586,393.622375 634.517639,392.937347 
	C629.234253,392.331207 625.792847,385.631409 628.516602,380.161591 
	C631.654846,373.859375 634.986389,367.340515 639.621399,362.156219 
	C652.547302,347.698730 661.576172,331.323975 665.694275,312.478912 
	C669.888672,293.284241 665.953491,275.070099 655.742371,258.613800 
	C643.472168,238.838989 626.139587,223.478378 609.357483,207.629410 
	C588.144043,187.595490 567.578735,166.903259 558.947021,137.706696 
	C547.959717,100.542450 553.893433,66.451027 577.116211,35.298923 
	C586.247986,23.049147 597.535583,13.169620 609.555725,3.991864 
	C610.819824,3.026732 612.378174,2.447029 613.900024,1.344249 
	C617.030579,1.000000 620.061218,1.000000 623.545898,1.000000 
z"/>
<path fill="#0C2340" opacity="1.000000" stroke="none" 
	d="
M475.865784,84.610916 
	C487.817566,82.821404 494.967407,91.354881 489.153931,103.312347 
	C485.341339,111.154228 481.055206,118.764465 477.137329,126.556976 
	C472.485016,135.810318 469.587036,145.641495 470.087128,156.027039 
	C470.893463,172.772842 476.950012,187.493118 488.399567,199.932358 
	C500.843170,213.451523 515.753662,224.035538 529.889832,235.582047 
	C547.117798,249.653961 562.384338,265.677521 571.634583,286.342773 
	C576.724915,297.714722 579.949890,309.569611 581.225037,322.204742 
	C583.294373,342.709930 578.611572,361.747528 569.518555,379.457672 
	C560.691406,396.649811 548.577515,411.735596 532.434265,423.049774 
	C527.832336,426.275085 522.739624,427.513580 517.178345,427.000244 
	C510.417725,426.376251 507.113464,419.134247 510.953400,411.693542 
	C514.639709,404.550537 519.327637,397.929199 523.477173,391.019592 
	C535.998352,370.170227 540.043335,348.439026 529.065369,325.714752 
	C526.004822,319.379486 521.841553,313.400787 517.318726,307.980682 
	C503.139923,290.989014 485.287201,277.900757 468.868591,263.279175 
	C449.513580,246.042618 433.981720,225.806320 428.308472,200.147385 
	C422.036743,171.781647 426.060608,144.539673 441.808319,119.375153 
	C450.006683,106.274384 459.877991,94.989555 472.477661,86.092186 
	C473.353485,85.473694 474.533783,85.286392 475.865784,84.610916 
z"/>
<path fill="#FEFEFE" opacity="1.000000" stroke="none" 
	d="
M675.570068,959.276733 
	C670.990051,958.788757 666.855225,958.389404 662.189941,957.938904 
	C662.189941,992.613220 662.189941,1027.158813 662.189941,1061.929565 
	C652.917480,1063.367310 644.121765,1064.731201 634.869690,1066.165771 
	C634.869690,1029.275391 634.869690,992.843933 634.869690,955.801819 
	C612.704834,953.029663 590.852905,950.296631 568.170166,947.459717 
	C568.170166,949.516052 568.170166,951.082520 568.170166,952.649048 
	C568.170166,988.981506 568.168396,1025.313965 568.177246,1061.646484 
	C568.177551,1062.974243 568.038330,1064.369507 568.385254,1065.616211 
	C569.233887,1068.666138 567.784241,1070.097412 565.081604,1069.963379 
	C557.136658,1069.569336 549.205688,1068.893066 540.940857,1068.303955 
	C540.940857,1027.871216 540.940857,987.919495 540.940857,947.452881 
	C518.667786,950.232239 496.824280,952.958008 474.624329,955.728271 
	C474.624329,991.996216 474.624329,1027.766602 474.624329,1064.133301 
	C465.949860,1063.389526 457.743286,1062.685913 449.139954,1061.948242 
	C449.139954,1027.938232 449.139954,994.171753 449.139954,959.965942 
	C430.408356,962.054077 412.136780,964.090881 393.313354,966.189209 
	C393.313354,991.730347 393.313354,1017.279053 393.313354,1043.724854 
	C390.917542,1042.648438 389.213501,1042.101318 387.745789,1041.178345 
	C384.652802,1039.233521 381.649261,1037.140015 378.670074,1035.021729 
	C369.621155,1028.587769 365.409668,1020.823975 365.492920,1008.700500 
	C366.173737,909.542969 366.062592,810.379456 365.929840,711.218079 
	C365.920898,704.550232 368.321014,701.016541 373.946838,697.973938 
	C402.477661,682.543884 432.708801,671.076965 462.670349,658.910339 
	C490.594727,647.571045 518.131165,635.278748 545.973999,623.733154 
	C549.401794,622.311768 554.115295,621.619324 557.467834,622.786560 
	C574.648132,628.768311 591.753662,635.045532 608.558716,642.007812 
	C644.087524,656.727295 679.458313,671.832214 714.790161,687.020447 
	C723.152832,690.615295 731.159485,695.061462 739.228027,699.309509 
	C745.003723,702.350403 747.399170,707.298401 746.639465,713.834534 
	C746.314270,716.632874 746.191528,719.469238 746.188354,722.288513 
	C746.083435,815.949341 746.012512,909.610229 745.909851,1003.271057 
	C745.898193,1013.929382 745.972473,1024.599243 745.458374,1035.237305 
	C745.334656,1037.796753 743.656860,1041.396240 741.594910,1042.544922 
	C734.440979,1046.529907 726.803345,1049.646606 718.295532,1053.581299 
	C718.295532,1022.761841 718.295532,993.724121 718.295532,964.204163 
	C703.932983,962.560425 689.974121,960.962891 675.570068,959.276733 
M490.118011,924.723267 
	C507.042358,922.550903 523.966675,920.378601 540.827820,918.214417 
	C540.827820,879.033813 540.827820,840.361328 540.827820,801.485107 
	C539.165710,801.781555 537.845459,801.935608 536.567322,802.257324 
	C517.283752,807.111084 498.038086,812.122742 478.697571,816.737061 
	C475.039917,817.609741 473.979248,818.877625 473.996063,822.580505 
	C474.145874,855.553650 474.083252,888.527710 474.083221,921.501526 
	C474.083191,923.061523 474.083191,924.621460 474.083191,926.463501 
	C479.670197,925.873840 484.450287,925.369385 490.118011,924.723267 
M568.001404,892.500000 
	C568.001404,900.968811 568.001404,909.437622 568.001404,918.266174 
	C590.400146,920.348022 612.474060,922.399597 634.702942,924.465637 
	C634.702942,888.549255 634.702942,853.340515 634.702942,817.876770 
	C612.474915,812.335632 590.427368,806.839417 568.001404,801.248901 
	C568.001404,831.915100 568.001404,861.707581 568.001404,892.500000 
M634.956116,688.853516 
	C635.506531,685.749634 634.207214,684.170532 631.220276,682.989868 
	C615.672546,676.844177 600.226074,670.442871 584.729858,664.166260 
	C579.309937,661.970825 573.848694,659.877258 568.205078,657.658081 
	C568.205078,695.609863 568.205078,732.855591 568.205078,770.399658 
	C590.398621,776.636658 612.480896,782.842346 634.956116,789.158508 
	C634.956116,755.671936 634.956116,722.725586 634.956116,688.853516 
M530.713013,773.180969 
	C531.990479,772.819458 533.248901,772.253296 534.548767,772.132263 
	C539.725037,771.650452 541.386780,769.315186 541.331726,763.790100 
	C540.997864,730.293579 541.165405,696.792175 541.165405,663.292358 
	C541.165405,661.560669 541.165405,659.828979 541.165405,656.381042 
	C519.379700,666.410095 498.817261,675.929199 478.194946,685.316772 
	C474.787079,686.868042 473.980957,689.148621 473.999420,692.735107 
	C474.148407,721.734131 474.082977,750.734314 474.082977,779.734131 
	C474.082977,782.711182 474.082977,785.688232 474.082977,789.170166 
	C492.995605,783.857666 511.475769,778.666687 530.713013,773.180969 
M392.998199,894.500000 
	C392.998199,907.932251 392.998199,921.364441 392.998199,934.966125 
	C412.127655,932.831238 430.603363,930.769348 449.313812,928.681213 
	C449.313812,894.641113 449.313812,860.768066 449.313812,826.457458 
	C447.531799,826.806824 446.087830,827.011047 444.685974,827.376831 
	C428.814026,831.517761 412.983429,835.826050 397.052887,839.726624 
	C393.719116,840.542908 392.901764,841.829468 392.930756,845.024963 
	C393.077393,861.182190 392.998199,877.341431 392.998199,894.500000 
M661.835938,884.500000 
	C661.835938,899.242432 661.835938,913.984802 661.835938,928.818665 
	C681.137390,930.868408 699.810730,932.851440 718.164062,934.800537 
	C718.164062,930.567871 718.164062,927.133484 718.164062,923.699158 
	C718.164062,897.574219 718.100769,871.448914 718.241211,845.324768 
	C718.259521,841.913818 717.473328,840.473328 713.893921,839.668518 
	C703.886780,837.418396 694.014404,834.571594 684.079712,831.995667 
	C676.815979,830.112305 669.537720,828.284912 661.835938,826.323059 
	C661.835938,845.921875 661.835938,864.710938 661.835938,884.500000 
M392.998322,795.486328 
	C392.745361,800.907349 392.492401,806.328369 392.225250,812.053589 
	C393.497437,811.914001 395.727783,812.028442 397.719391,811.393799 
	C413.644928,806.318909 429.494354,801.003662 445.442993,796.004089 
	C449.062012,794.869568 449.714294,792.841064 449.700531,789.433594 
	C449.583374,760.445679 449.637421,731.457092 449.622955,702.468750 
	C449.622162,700.862793 449.468872,699.256897 449.362000,697.171509 
	C447.648376,697.827454 446.456604,698.260315 445.282471,698.736694 
	C429.156677,705.278931 413.077637,711.940491 396.872284,718.279114 
	C393.592560,719.561951 392.906128,721.288574 392.925049,724.519653 
	C393.061676,747.842834 392.998291,771.167114 392.998322,795.486328 
M718.999084,759.501587 
	C719.056030,748.179871 718.960449,736.853943 719.275208,725.539429 
	C719.355835,722.640503 718.397705,721.556396 715.938110,720.510315 
	C700.696289,714.028381 685.528198,707.373230 670.329712,700.789307 
	C667.673523,699.638672 664.989197,698.553101 662.079102,697.337830 
	C662.079102,731.126160 662.079102,764.216248 662.079102,797.515320 
	C680.922607,802.361877 699.584106,807.161621 718.992859,812.153564 
	C718.992859,794.274841 718.992859,777.388367 718.999084,759.501587 
z"/>
<path fill="#FEFEFF" opacity="1.000000" stroke="none" 
	d="
M1004.007690,619.894287 
	C1030.411255,628.602600 1043.904297,648.075928 1049.913086,673.504578 
	C1058.404541,709.439819 1052.151978,743.829956 1036.903076,776.726135 
	C1013.610352,826.975037 977.621948,865.388916 927.991455,890.521362 
	C922.872742,893.113464 917.257324,894.932068 911.681030,896.364807 
	C903.065979,898.578247 898.283264,894.486572 899.247070,885.589294 
	C901.071411,868.747864 902.724976,851.848572 905.577759,835.166321 
	C910.681396,805.321594 915.359741,775.469360 916.120361,745.135742 
	C916.813049,717.515381 917.482117,689.894470 918.168640,662.273926 
	C918.309143,656.619568 918.255554,650.945923 918.757019,645.322693 
	C918.939514,643.277222 919.943909,640.645996 921.481567,639.480408 
	C941.108948,624.602722 962.845947,615.590881 987.963745,617.072510 
	C993.216248,617.382324 998.399536,618.864441 1004.007690,619.894287 
z"/>
<path fill="#FDFDFD" opacity="1.000000" stroke="none" 
	d="
M314.790344,526.216919 
	C339.531311,530.565735 363.767242,535.588562 388.236542,538.872986 
	C429.474091,544.408020 471.012085,546.756409 512.612305,547.093506 
	C566.721252,547.532104 620.834473,547.576477 674.945496,547.510254 
	C686.869995,547.495667 698.792969,546.304688 711.210754,546.769714 
	C709.657104,547.494934 708.163147,548.660339 706.540894,548.880615 
	C671.819641,553.595276 637.154846,558.861755 602.327271,562.611084 
	C577.555786,565.277832 552.579529,566.494019 527.661438,567.229858 
	C498.896240,568.079346 470.072723,568.460938 441.313843,567.650452 
	C402.444519,566.554993 363.560089,564.426331 325.428986,555.907349 
	C315.792084,553.754395 306.417267,550.268677 297.100250,546.902100 
	C291.232880,544.781921 288.262115,540.336670 288.835602,533.665588 
	C289.241302,528.946045 288.914154,524.163452 288.914154,519.251282 
	C296.967560,521.419250 305.678894,523.764282 314.790344,526.216919 
z"/>
<path fill="#0D2441" opacity="1.000000" stroke="none" 
	d="
M489.674194,924.794067 
	C484.450287,925.369385 479.670197,925.873840 474.083191,926.463501 
	C474.083191,924.621460 474.083191,923.061523 474.083221,921.501526 
	C474.083252,888.527710 474.145874,855.553650 473.996063,822.580505 
	C473.979248,818.877625 475.039917,817.609741 478.697571,816.737061 
	C498.038086,812.122742 517.283752,807.111084 536.567322,802.257324 
	C537.845459,801.935608 539.165710,801.781555 540.827820,801.485107 
	C540.827820,840.361328 540.827820,879.033813 540.827820,918.214417 
	C523.966675,920.378601 507.042358,922.550903 489.674194,924.794067 
z"/>
<path fill="#0D2441" opacity="1.000000" stroke="none" 
	d="
M568.001404,892.000000 
	C568.001404,861.707581 568.001404,831.915100 568.001404,801.248901 
	C590.427368,806.839417 612.474915,812.335632 634.702942,817.876770 
	C634.702942,853.340515 634.702942,888.549255 634.702942,924.465637 
	C612.474060,922.399597 590.400146,920.348022 568.001404,918.266174 
	C568.001404,909.437622 568.001404,900.968811 568.001404,892.000000 
z"/>
<path fill="#0D2441" opacity="1.000000" stroke="none" 
	d="
M634.956116,689.316345 
	C634.956116,722.725586 634.956116,755.671936 634.956116,789.158508 
	C612.480896,782.842346 590.398621,776.636658 568.205078,770.399658 
	C568.205078,732.855591 568.205078,695.609863 568.205078,657.658081 
	C573.848694,659.877258 579.309937,661.970825 584.729858,664.166260 
	C600.226074,670.442871 615.672546,676.844177 631.220276,682.989868 
	C634.207214,684.170532 635.506531,685.749634 634.956116,689.316345 
z"/>
<path fill="#0D2441" opacity="1.000000" stroke="none" 
	d="
M530.334473,773.328308 
	C511.475769,778.666687 492.995605,783.857666 474.082977,789.170166 
	C474.082977,785.688232 474.082977,782.711182 474.082977,779.734131 
	C474.082977,750.734314 474.148407,721.734131 473.999420,692.735107 
	C473.980957,689.148621 474.787079,686.868042 478.194946,685.316772 
	C498.817261,675.929199 519.379700,666.410095 541.165405,656.381042 
	C541.165405,659.828979 541.165405,661.560669 541.165405,663.292358 
	C541.165405,696.792175 540.997864,730.293579 541.331726,763.790100 
	C541.386780,769.315186 539.725037,771.650452 534.548767,772.132263 
	C533.248901,772.253296 531.990479,772.819458 530.334473,773.328308 
z"/>
<path fill="#0E2542" opacity="1.000000" stroke="none" 
	d="
M392.998199,894.000000 
	C392.998199,877.341431 393.077393,861.182190 392.930756,845.024963 
	C392.901764,841.829468 393.719116,840.542908 397.052887,839.726624 
	C412.983429,835.826050 428.814026,831.517761 444.685974,827.376831 
	C446.087830,827.011047 447.531799,826.806824 449.313812,826.457458 
	C449.313812,860.768066 449.313812,894.641113 449.313812,928.681213 
	C430.603363,930.769348 412.127655,932.831238 392.998199,934.966125 
	C392.998199,921.364441 392.998199,907.932251 392.998199,894.000000 
z"/>
<path fill="#0C2340" opacity="1.000000" stroke="none" 
	d="
M661.835938,884.000000 
	C661.835938,864.710938 661.835938,845.921875 661.835938,826.323059 
	C669.537720,828.284912 676.815979,830.112305 684.079712,831.995667 
	C694.014404,834.571594 703.886780,837.418396 713.893921,839.668518 
	C717.473328,840.473328 718.259521,841.913818 718.241211,845.324768 
	C718.100769,871.448914 718.164062,897.574219 718.164062,923.699158 
	C718.164062,927.133484 718.164062,930.567871 718.164062,934.800537 
	C699.810730,932.851440 681.137390,930.868408 661.835938,928.818665 
	C661.835938,913.984802 661.835938,899.242432 661.835938,884.000000 
z"/>
<path fill="#0E2542" opacity="1.000000" stroke="none" 
	d="
M392.998291,794.988708 
	C392.998291,771.167114 393.061676,747.842834 392.925049,724.519653 
	C392.906128,721.288574 393.592560,719.561951 396.872284,718.279114 
	C413.077637,711.940491 429.156677,705.278931 445.282471,698.736694 
	C446.456604,698.260315 447.648376,697.827454 449.362000,697.171509 
	C449.468872,699.256897 449.622162,700.862793 449.622955,702.468750 
	C449.637421,731.457092 449.583374,760.445679 449.700531,789.433594 
	C449.714294,792.841064 449.062012,794.869568 445.442993,796.004089 
	C429.494354,801.003662 413.644928,806.318909 397.719391,811.393799 
	C395.727783,812.028442 393.497437,811.914001 392.225250,812.053589 
	C392.492401,806.328369 392.745361,800.907349 392.998291,794.988708 
z"/>
<path fill="#0D2441" opacity="1.000000" stroke="none" 
	d="
M718.995972,760.001709 
	C718.992859,777.388367 718.992859,794.274841 718.992859,812.153564 
	C699.584106,807.161621 680.922607,802.361877 662.079102,797.515320 
	C662.079102,764.216248 662.079102,731.126160 662.079102,697.337830 
	C664.989197,698.553101 667.673523,699.638672 670.329712,700.789307 
	C685.528198,707.373230 700.696289,714.028381 715.938110,720.510315 
	C718.397705,721.556396 719.355835,722.640503 719.275208,725.539429 
	C718.960449,736.853943 719.056030,748.179871 718.995972,760.001709 
z"/>
</svg>